<svg width="451" height="114" viewBox="0 0 451 114" fill="none" xmlns="http://www.w3.org/2000/svg">
<path fill-rule="evenodd" clip-rule="evenodd" d="M85.4305 85.5C85.745 85.5 86 85.245 86 84.9305V69.8999L39.5028 69.8999C26.5794 69.8999 16.1028 59.4234 16.1028 46.4999C16.1028 33.5765 26.5794 23.0999 39.5029 23.0999L86 23.0999V7.5L39 7.5C17.4609 7.5 1.85827e-06 24.9609 0 46.5C-1.85827e-06 68.0391 17.4609 85.5 39 85.5L85.4305 85.5Z" fill="#180137"/>
<path d="M86 54.7555L39.6257 54.7555C35.1369 54.7555 31.498 51.1166 31.498 46.6277V46.6277C31.498 42.1389 35.1369 38.5 39.6257 38.5L86 38.5L86 54.7555Z" fill="#A762FF"/>
<path d="M116.568 85.5V7.27734H167.154V16.6523H130.582V40.3828H162.516V48.8789H130.582V76.2715H167.74V85.5H116.568ZM190.592 36.1348C191.471 34.7676 192.561 33.498 193.863 32.3262C195.198 31.1217 196.663 30.0801 198.258 29.2012C199.885 28.3223 201.611 27.6387 203.434 27.1504C205.257 26.6296 207.096 26.3691 208.951 26.3691C212.467 26.3691 215.462 26.8737 217.936 27.8828C220.41 28.8919 222.444 30.373 224.039 32.3262C225.634 34.2793 226.79 36.7044 227.506 39.6016C228.255 42.4987 228.629 45.8353 228.629 49.6113V85.5H215.201V48.9766C215.201 44.4518 214.452 41.099 212.955 38.918C211.49 36.7044 209.065 35.5977 205.68 35.5977C204.312 35.5977 202.913 35.8255 201.48 36.2812C200.048 36.737 198.697 37.3066 197.428 37.9902C196.158 38.6738 195.019 39.4225 194.01 40.2363C193.001 41.0501 192.219 41.7988 191.666 42.4824V85.5H178.238V27.7852H188.346L190.592 36.1348ZM263.688 99.9043C267.268 99.9043 270.279 99.7578 272.721 99.4648C275.162 99.2044 277.132 98.7161 278.629 98C280.159 97.3164 281.249 96.3724 281.9 95.168C282.584 93.9635 282.926 92.4173 282.926 90.5293C282.926 88.4134 282.421 86.8021 281.412 85.6953C280.436 84.5885 278.938 83.7747 276.92 83.2539C274.902 82.7331 272.33 82.3913 269.205 82.2285C266.08 82.0658 262.402 81.8867 258.17 81.6914C257.324 82.1471 256.493 82.7493 255.68 83.498C254.866 84.2467 254.133 85.0768 253.482 85.9883C252.864 86.9323 252.343 87.9414 251.92 89.0156C251.529 90.1224 251.334 91.2617 251.334 92.4336C251.334 93.9961 251.643 95.2656 252.262 96.2422C252.913 97.2188 253.792 97.9674 254.898 98.4883C256.005 99.0417 257.307 99.416 258.805 99.6113C260.335 99.8066 261.962 99.9043 263.688 99.9043ZM267.447 55.666C268.749 55.4382 269.954 55.0638 271.061 54.543C272.2 54.0221 273.193 53.3223 274.039 52.4434C274.885 51.5319 275.553 50.4089 276.041 49.0742C276.529 47.7396 276.773 46.1445 276.773 44.2891C276.773 41.099 275.878 38.8366 274.088 37.502C272.33 36.1673 269.628 35.5 265.982 35.5C264.322 35.5 262.792 35.6465 261.393 35.9395C260.025 36.2324 258.854 36.737 257.877 37.4531C256.9 38.1367 256.135 39.097 255.582 40.334C255.061 41.5384 254.801 43.0684 254.801 44.9238C254.801 46.1934 254.964 47.4141 255.289 48.5859C255.647 49.7578 256.135 50.8483 256.754 51.8574C257.372 52.834 258.089 53.7129 258.902 54.4941C259.749 55.2428 260.644 55.8613 261.588 56.3496L267.447 55.666ZM284.488 36.1348C285.66 37.5996 286.555 38.9505 287.174 40.1875C287.792 41.3919 288.102 42.6452 288.102 43.9473C288.102 46.291 287.776 48.5371 287.125 50.6855C286.507 52.8014 285.465 54.722 284 56.4473C282.535 58.1725 280.582 59.6374 278.141 60.8418C275.732 62.0462 272.721 62.8926 269.107 63.3809L252.945 65.6758L253.824 72.3164L267.643 72.8047C272.265 73 276.253 73.472 279.605 74.2207C282.991 74.9368 285.79 76.0111 288.004 77.4434C290.217 78.8757 291.861 80.6986 292.936 82.9121C294.01 85.0931 294.547 87.7461 294.547 90.8711C294.547 94.3867 293.847 97.349 292.447 99.7578C291.048 102.199 289.029 104.169 286.393 105.666C283.756 107.196 280.517 108.303 276.676 108.986C272.867 109.67 268.521 110.012 263.639 110.012C255.956 110.012 250.162 108.677 246.256 106.008C242.382 103.339 240.445 98.9928 240.445 92.9707C240.445 91.4408 240.706 90.0085 241.227 88.6738C241.747 87.3717 242.464 86.1836 243.375 85.1094C244.286 84.0026 245.344 83.026 246.549 82.1797C247.753 81.3333 249.023 80.6172 250.357 80.0312C249.023 79.8359 247.851 79.4616 246.842 78.9082C245.833 78.3548 244.986 77.5736 244.303 76.5645C243.619 75.5553 243.098 74.3021 242.74 72.8047C242.415 71.3073 242.252 69.5007 242.252 67.3848C242.252 65.8548 242.561 64.6016 243.18 63.625C243.831 62.6159 244.677 61.7858 245.719 61.1348C246.76 60.4837 247.965 59.9629 249.332 59.5723C250.732 59.1816 252.164 58.8073 253.629 58.4492C252.197 58.2539 250.829 57.7982 249.527 57.082C248.258 56.3333 247.135 55.373 246.158 54.2012C245.214 53.0293 244.449 51.6458 243.863 50.0508C243.31 48.4557 243.033 46.6979 243.033 44.7773C243.033 41.9128 243.538 39.3574 244.547 37.1113C245.589 34.8327 247.07 32.8958 248.99 31.3008C250.911 29.7057 253.238 28.485 255.973 27.6387C258.707 26.7923 261.799 26.3691 265.25 26.3691C268.375 26.3691 271.126 26.6458 273.502 27.1992C275.878 27.7201 277.896 28.5664 279.557 29.7383C280.794 29.1523 281.933 28.6803 282.975 28.3223C284.049 27.9316 285.139 27.6387 286.246 27.4434C287.385 27.2155 288.606 27.069 289.908 27.0039C291.21 26.9062 292.74 26.8574 294.498 26.8574H296.5V36.1348H284.488ZM305.826 85.5V27.7852H319.059V85.5H305.826ZM304.947 9.42578C304.947 8.35156 305.143 7.34245 305.533 6.39844C305.924 5.45443 306.461 4.64062 307.145 3.95703C307.828 3.27344 308.626 2.73633 309.537 2.3457C310.449 1.92253 311.425 1.71094 312.467 1.71094C313.541 1.71094 314.534 1.92253 315.445 2.3457C316.389 2.73633 317.203 3.28971 317.887 4.00586C318.57 4.68945 319.107 5.50326 319.498 6.44727C319.889 7.39128 320.084 8.38411 320.084 9.42578C320.084 10.5 319.872 11.5091 319.449 12.4531C319.059 13.3971 318.505 14.2109 317.789 14.8945C317.105 15.5781 316.292 16.1152 315.348 16.5059C314.436 16.8965 313.476 17.0918 312.467 17.0918C311.36 17.0918 310.351 16.8965 309.439 16.5059C308.528 16.0827 307.73 15.5293 307.047 14.8457C306.396 14.1296 305.875 13.3158 305.484 12.4043C305.126 11.4603 304.947 10.4674 304.947 9.42578ZM346.939 36.1348C347.818 34.7676 348.909 33.498 350.211 32.3262C351.546 31.1217 353.01 30.0801 354.605 29.2012C356.233 28.3223 357.958 27.6387 359.781 27.1504C361.604 26.6296 363.443 26.3691 365.299 26.3691C368.814 26.3691 371.809 26.8737 374.283 27.8828C376.757 28.8919 378.792 30.373 380.387 32.3262C381.982 34.2793 383.137 36.7044 383.854 39.6016C384.602 42.4987 384.977 45.8353 384.977 49.6113V85.5H371.549V48.9766C371.549 44.4518 370.8 41.099 369.303 38.918C367.838 36.7044 365.413 35.5977 362.027 35.5977C360.66 35.5977 359.26 35.8255 357.828 36.2812C356.396 36.737 355.045 37.3066 353.775 37.9902C352.506 38.6738 351.367 39.4225 350.357 40.2363C349.348 41.0501 348.567 41.7988 348.014 42.4824V85.5H334.586V27.7852H344.693L346.939 36.1348ZM443.131 81.3008C441.699 82.1797 440.169 82.9447 438.541 83.5957C436.913 84.2467 435.253 84.8001 433.561 85.2559C431.9 85.7116 430.257 86.0534 428.629 86.2812C427.001 86.5091 425.471 86.623 424.039 86.623C419.579 86.623 415.608 85.9557 412.125 84.6211C408.674 83.2539 405.745 81.3171 403.336 78.8105C400.96 76.2715 399.137 73.2279 397.867 69.6797C396.63 66.099 396.012 62.0951 396.012 57.668C396.012 53.1432 396.581 48.9766 397.721 45.168C398.86 41.3268 400.536 38.0228 402.75 35.2559C404.996 32.4564 407.763 30.2754 411.051 28.7129C414.371 27.1504 418.18 26.3691 422.477 26.3691C426.285 26.3691 429.638 26.9876 432.535 28.2246C435.465 29.429 437.923 31.1543 439.908 33.4004C441.894 35.6465 443.391 38.3483 444.4 41.5059C445.41 44.6634 445.914 48.179 445.914 52.0527C445.914 53.2572 445.898 54.4453 445.865 55.6172C445.833 56.7891 445.784 57.9284 445.719 59.0352H409.684C409.716 62.1927 410.09 64.9271 410.807 67.2383C411.523 69.5495 412.532 71.4538 413.834 72.9512C415.169 74.4486 416.78 75.5553 418.668 76.2715C420.589 76.9876 422.737 77.3457 425.113 77.3457C428.141 77.3457 430.81 76.9225 433.121 76.0762C435.432 75.1973 437.711 73.8952 439.957 72.1699L443.131 81.3008ZM434.635 51.0273C434.635 45.9492 433.609 42.1243 431.559 39.5527C429.508 36.9811 426.66 35.6628 423.014 35.5977C420.8 35.6628 418.88 36.1348 417.252 37.0137C415.657 37.86 414.306 39.0156 413.199 40.4805C412.125 41.9453 411.295 43.6543 410.709 45.6074C410.123 47.5605 409.781 49.6439 409.684 51.8574H434.635V51.0273Z" fill="#180137"/>
</svg>
